<?xml version="1.0" standalone="no"?>
<!DOCTYPE svg PUBLIC "-//W3C//DTD SVG 20010904//EN"
 "http://www.w3.org/TR/2001/REC-SVG-20010904/DTD/svg10.dtd">
<svg version="1.0" xmlns="http://www.w3.org/2000/svg"
 width="2000.000000pt" height="2000.000000pt" viewBox="0 0 2000.000000 2000.000000"
 preserveAspectRatio="xMidYMid meet">

<g transform="translate(0.000000,2000.000000) scale(0.100000,-0.100000)"
fill="#000000" stroke="none">
<path d="M9941 17639 c-85 -34 -323 -260 -442 -421 -85 -114 -164 -252 -210
-366 -22 -53 -44 -108 -50 -121 -11 -27 0 -33 -140 80 -52 42 -124 94 -160
117 -180 114 -642 293 -753 292 -89 -1 -172 -80 -245 -232 -93 -194 -161 -449
-181 -680 -13 -155 -18 -177 -44 -182 -208 -40 -405 -99 -611 -182 l-70 -29
-276 0 -276 0 -59 -30 c-135 -70 -179 -211 -110 -361 14 -30 56 -94 92 -142
37 -48 85 -120 107 -160 48 -89 47 -91 -68 -122 -203 -54 -438 -143 -520 -196
-102 -64 -142 -135 -131 -228 12 -109 118 -376 247 -625 44 -85 78 -160 75
-167 -3 -7 -40 -36 -83 -65 -219 -147 -428 -337 -453 -413 -7 -21 -10 -57 -7
-79 18 -133 245 -432 510 -671 59 -54 107 -103 107 -109 0 -7 -30 -46 -66 -87
-179 -204 -314 -414 -393 -612 -34 -85 -38 -126 -17 -186 21 -60 53 -98 126
-152 161 -118 398 -226 677 -309 39 -12 73 -27 76 -34 2 -6 -16 -59 -40 -117
-118 -280 -178 -635 -127 -750 24 -53 79 -104 139 -130 87 -37 241 -81 354
-101 142 -25 509 -31 689 -10 63 7 115 11 117 9 2 -1 8 -64 14 -138 18 -214
29 -289 60 -411 31 -122 95 -295 135 -363 47 -80 129 -136 199 -136 36 0 173
32 261 62 247 82 403 161 665 333 55 36 104 65 110 65 5 0 36 -55 69 -122 105
-221 233 -399 403 -563 141 -136 265 -214 339 -215 79 0 193 73 344 219 173
169 280 314 413 561 20 36 39 69 44 74 4 5 51 -20 106 -57 264 -176 575 -306
866 -363 84 -16 92 -16 144 0 70 22 118 71 172 175 87 167 154 429 174 674
l12 152 55 -2 c30 -1 129 -5 219 -9 182 -7 287 2 483 42 132 28 319 89 412
136 150 76 174 125 156 321 -20 214 -70 406 -151 586 -32 70 -35 90 -16 95
267 83 349 114 472 175 166 83 248 136 320 205 125 122 125 183 6 421 -82 164
-193 325 -330 479 -33 38 -61 75 -61 82 0 7 53 60 118 117 255 226 450 478
491 634 17 62 -1 119 -62 197 -45 56 -200 191 -310 270 -53 37 -97 74 -97 82
0 8 29 72 64 142 112 223 198 456 232 627 15 77 15 86 -1 134 -41 124 -177
200 -560 312 -211 61 -215 63 -215 91 0 41 49 128 120 218 87 109 126 183 135
253 16 127 -61 248 -179 282 -51 15 -88 16 -291 10 -262 -8 -248 -10 -481 75
-145 53 -324 102 -492 135 -42 9 -47 22 -61 171 -14 153 -33 255 -76 404 -75
257 -179 444 -276 496 -44 24 -151 24 -234 0 -365 -105 -617 -238 -805 -422
-31 -30 -59 -54 -63 -54 -5 0 -17 21 -29 48 -98 228 -151 324 -249 452 -76 99
-190 225 -264 292 -133 120 -219 157 -294 127z m165 -413 c231 -237 368 -494
414 -776 15 -91 7 -279 -16 -382 -32 -142 -103 -284 -179 -358 -47 -46 -43
-45 -230 -35 -90 5 -182 3 -258 -5 l-117 -11 -40 31 c-95 75 -186 276 -211
465 -15 120 -6 299 20 397 43 159 151 362 278 525 94 120 213 253 227 253 6 0
57 -47 112 -104z m1653 -328 c5 -13 32 -83 60 -156 83 -212 95 -265 95 -422 0
-120 -3 -143 -27 -209 -26 -75 -55 -116 -89 -127 -37 -11 -143 -78 -213 -133
-145 -113 -284 -280 -360 -431 -20 -39 -39 -70 -43 -68 -87 39 -256 135 -281
160 -72 70 -96 168 -94 383 1 258 36 398 138 551 115 172 294 297 590 411 75
29 175 59 208 62 4 1 11 -9 16 -21z m-3434 -12 c92 -27 258 -94 343 -139 110
-57 197 -120 278 -201 117 -118 185 -235 225 -391 19 -75 23 -117 23 -250 1
-228 -23 -332 -91 -397 -43 -41 -215 -120 -229 -105 -3 3 10 10 28 16 83 27
184 87 213 126 47 63 74 222 32 187 -15 -13 -249 2 -312 19 -138 38 -395 143
-415 168 -11 14 -104 71 -116 71 -6 0 -15 7 -18 16 -3 9 -12 14 -19 11 -6 -3
-36 18 -64 46 -33 32 -53 45 -53 36 0 -28 44 -81 85 -103 52 -28 149 -91 166
-108 8 -8 25 -21 39 -31 79 -55 250 -252 324 -374 20 -34 48 -71 62 -82 17
-13 21 -22 13 -27 -14 -8 -27 8 -106 126 -129 192 -262 330 -403 416 -44 27
-101 61 -126 77 -51 31 -80 83 -111 197 -37 139 -10 330 77 554 22 56 40 106
40 112 0 18 32 55 44 51 6 -2 38 -12 71 -21z m-438 -1101 c196 -41 342 -123
481 -269 106 -112 157 -196 221 -366 29 -76 42 -99 70 -117 62 -42 100 -34
304 66 397 195 765 272 1165 243 352 -25 611 -97 931 -259 120 -61 151 -73
193 -73 57 0 99 19 116 52 6 12 23 57 38 98 48 138 109 242 195 333 178 191
438 307 686 307 130 0 197 -14 418 -88 l200 -66 274 -6 c178 -3 276 -9 278
-16 2 -5 -29 -46 -69 -91 -102 -113 -182 -259 -209 -383 -27 -128 -27 -275 1
-460 33 -217 17 -329 -68 -494 -53 -104 -166 -226 -272 -295 -116 -75 -404
-202 -420 -184 -4 4 -20 46 -35 93 -34 105 -111 267 -176 373 -27 43 -49 81
-49 84 0 3 -20 35 -44 72 -44 67 -67 131 -47 131 6 0 11 -9 11 -19 0 -24 61
-133 78 -139 6 -2 12 1 12 7 0 28 84 179 132 236 9 11 37 45 62 76 45 57 115
119 133 119 6 0 17 8 26 18 19 20 105 64 239 122 55 24 109 55 127 74 33 34
65 101 75 158 6 33 5 37 -10 31 -15 -6 -15 -4 0 20 25 37 18 95 -15 119 -29
22 -157 38 -304 37 -407 0 -781 -280 -856 -641 -24 -117 -25 -269 -3 -335 9
-26 59 -115 111 -197 168 -265 239 -433 297 -696 38 -174 49 -294 43 -469 -5
-145 -34 -358 -67 -481 -62 -240 -190 -489 -366 -715 -82 -106 -319 -345 -311
-314 3 13 16 103 28 201 19 155 20 184 9 221 -16 49 -35 74 -72 93 -83 43
-179 -19 -202 -131 -3 -16 -12 -88 -21 -160 -21 -188 -53 -401 -71 -470 -9
-33 -21 -87 -28 -119 -6 -32 -18 -63 -26 -67 -97 -54 -571 -221 -586 -206 -2
2 1 57 7 122 6 65 8 129 5 141 -3 12 -2 55 3 96 20 158 33 328 27 352 -20 80
-260 70 -281 -12 -10 -38 -22 -151 -39 -347 -8 -93 -18 -195 -22 -225 l-6 -55
-214 -3 c-169 -2 -215 0 -218 10 -3 7 -12 103 -21 213 -29 363 -33 398 -53
425 -32 42 -167 65 -222 37 -51 -26 -54 -47 -31 -290 11 -122 23 -275 26 -341
l5 -118 -27 6 c-160 38 -541 173 -560 199 -26 35 -85 332 -147 748 -8 47 -21
102 -31 123 -40 83 -154 116 -207 59 -51 -55 -58 -95 -38 -218 5 -33 14 -105
20 -160 5 -55 13 -111 17 -124 9 -36 -4 -24 -139 122 -241 262 -395 505 -496
782 -78 215 -108 436 -99 735 7 249 36 397 121 633 44 122 82 195 180 350 169
267 159 245 164 366 16 378 -226 705 -614 832 -61 20 -95 23 -285 27 -202 4
-220 3 -263 -16 -39 -18 -46 -25 -46 -49 1 -15 7 -39 15 -53 8 -14 14 -47 15
-74 0 -70 19 -122 59 -167 36 -38 150 -109 177 -109 22 0 176 -83 225 -121
101 -78 187 -187 262 -329 24 -47 47 -92 50 -100 7 -20 38 16 72 85 13 28 24
44 25 37 0 -17 -37 -91 -59 -117 -9 -11 -50 -75 -90 -143 -82 -136 -160 -304
-186 -400 -15 -52 -21 -61 -36 -57 -60 19 -282 120 -338 154 -185 112 -316
270 -387 466 -21 59 -25 279 -5 355 17 70 25 315 12 396 -27 172 -99 318 -223
450 -76 80 -91 103 -65 105 6 0 129 1 272 2 l260 2 185 64 c102 35 212 69 245
76 82 18 288 18 372 0z m5043 -655 c0 -5 -10 -15 -22 -21 -23 -12 -23 -12 -4
10 21 23 26 26 26 11z m-5777 -31 c31 -24 36 -30 17 -24 -24 7 -83 55 -67 55
4 0 26 -14 50 -31z m5687 -34 c-9 -10 -30 -15 -69 -14 l-56 2 58 7 c32 4 61
10 64 14 13 12 15 6 3 -9z m-5455 -14 l40 -9 -35 0 c-19 0 -46 4 -60 8 -20 6
-21 8 -5 8 11 1 38 -3 60 -7z m5325 -1 c0 -5 -12 -10 -27 -9 l-28 1 25 8 c14
4 26 8 28 9 1 1 2 -3 2 -9z m-67 -7 c-7 -2 -19 -2 -25 0 -7 3 -2 5 12 5 14 0
19 -2 13 -5z m-5127 -18 c18 -14 17 -14 -11 -6 -57 17 -60 19 -34 20 14 1 34
-6 45 -14z m5052 8 c-10 -2 -26 -2 -35 0 -10 3 -2 5 17 5 19 0 27 -2 18 -5z
m-4923 -63 c3 -5 2 -10 -4 -10 -5 0 -13 5 -16 10 -3 6 -2 10 4 10 5 0 13 -4
16 -10z m4680 -20 c-3 -5 -12 -10 -18 -10 -7 0 -6 4 3 10 19 12 23 12 15 0z
m-4572 -45 c52 -42 147 -155 147 -176 0 -20 -18 -7 -24 16 -8 31 -157 185
-180 185 -9 0 -16 5 -16 10 0 18 14 11 73 -35z m4467 -30 c0 -3 -20 -27 -44
-53 -52 -56 -80 -108 -106 -194 -16 -54 -19 -58 -19 -29 -1 47 58 165 116 229
46 51 53 57 53 47z m-5657 -117 c-3 -18 -11 -47 -18 -64 -21 -52 -28 -186 -15
-281 7 -49 32 -146 56 -217 24 -71 43 -130 41 -131 -7 -6 -136 -54 -158 -60
-24 -6 -31 2 -103 110 -89 133 -172 288 -209 390 -14 39 -33 85 -42 102 -31
61 -21 73 90 111 120 40 253 70 317 71 l48 1 -7 -32z m7075 2 c126 -25 270
-67 300 -86 18 -12 21 -20 16 -42 -4 -15 -13 -36 -20 -47 -8 -11 -14 -29 -14
-40 0 -30 -42 -166 -78 -252 -17 -39 -60 -121 -96 -183 -36 -61 -66 -116 -66
-121 0 -14 -20 -10 -81 15 -31 12 -93 33 -138 46 -65 19 -80 27 -75 39 29 67
66 177 78 234 20 87 21 296 2 352 -8 22 -17 55 -21 73 l-7 32 50 0 c27 0 95
-9 150 -20z m-5712 -97 c-8 -8 -12 -3 -21 27 l-7 25 17 -23 c9 -13 14 -26 11
-29z m21 -150 c-2 -21 -4 -6 -4 32 0 39 2 55 4 38 2 -18 2 -50 0 -70z m4110
-20 c-3 -10 -5 -4 -5 12 0 17 2 24 5 18 2 -7 2 -21 0 -30z m-5144 -786 c106
-79 285 -187 309 -187 4 0 30 -14 58 -32 55 -34 101 -106 99 -156 0 -15 -3
-20 -6 -12 -34 103 -45 120 -109 160 -35 22 -69 40 -75 40 -19 0 -152 72 -206
112 -29 21 -55 38 -59 38 -4 0 -16 7 -26 17 -10 9 -19 14 -21 12 -40 -59 -36
-132 8 -143 13 -3 31 -19 39 -34 8 -15 62 -76 120 -136 58 -60 106 -113 106
-119 0 -5 15 -30 33 -56 47 -66 55 -105 62 -286 9 -223 7 -211 30 -207 61 10
116 22 126 28 7 4 9 26 6 63 -18 181 -28 496 -15 483 4 -4 10 -77 13 -162 6
-150 22 -349 31 -381 10 -36 -188 -79 -402 -86 -142 -5 -174 -3 -264 16 -128
28 -240 69 -350 128 -150 81 -236 154 -385 328 -62 72 -122 139 -134 149 -11
11 -21 27 -21 37 0 23 180 168 287 231 174 104 456 192 656 207 9 0 50 -23 90
-52z m6385 37 c214 -31 429 -113 601 -228 106 -71 241 -181 241 -197 0 -16
-145 -195 -224 -278 -218 -227 -485 -353 -804 -381 -176 -16 -416 11 -536 59
-27 11 -28 13 -22 59 4 26 11 157 16 292 9 231 20 313 48 366 6 11 79 54 164
96 146 73 280 153 341 204 34 28 39 29 175 8z m-5948 -964 c0 -5 7 -10 15 -10
8 0 15 -4 15 -10 0 -14 -23 -13 -38 2 -15 15 -16 28 -2 28 6 0 10 -4 10 -10z
m6269 -505 c101 -98 183 -194 251 -295 47 -69 120 -198 120 -210 0 -21 -189
-123 -332 -178 -226 -89 -381 -108 -596 -73 -73 11 -145 21 -160 21 l-27 0 3
75 c6 139 -51 264 -188 410 -92 97 -126 147 -135 195 l-6 36 78 22 c43 12 92
26 108 32 30 9 205 40 227 40 34 0 -10 -13 -83 -25 -159 -25 -309 -72 -309
-98 0 -33 44 -98 120 -176 89 -92 82 -89 196 -63 50 11 237 109 301 158 80 61
215 103 342 105 45 1 81 5 81 10 0 5 -7 9 -15 9 -8 0 -15 4 -15 9 0 11 -94
102 -121 117 -22 11 -26 11 -160 -21 -59 -14 -189 -22 -178 -11 3 3 45 10 94
15 105 12 210 33 221 43 10 10 73 -40 183 -147z m-7034 134 c17 -8 16 -9 -6
-4 -19 3 -36 -3 -61 -23 -57 -45 -147 -143 -134 -147 6 -2 51 -6 100 -9 49 -4
94 -10 100 -15 6 -4 40 -18 76 -30 71 -25 168 -73 270 -134 36 -21 72 -43 80
-48 8 -5 54 -29 102 -53 l87 -45 23 32 c22 32 32 45 105 127 22 25 56 67 77
93 20 27 36 44 36 39 0 -13 -54 -85 -130 -172 -31 -36 -73 -97 -94 -135 -51
-93 -307 -349 -364 -365 -54 -14 -184 -12 -277 5 -204 38 -546 188 -545 238 1
23 70 149 147 265 58 89 110 150 214 255 136 136 152 146 194 126z m78 -16
c-7 -2 -19 -2 -25 0 -7 3 -2 5 12 5 14 0 19 -2 13 -5z m120 -20 c-7 -2 -19 -2
-25 0 -7 3 -2 5 12 5 14 0 19 -2 13 -5z m142 -13 c29 -6 19 -7 -40 -3 -44 3
-82 7 -84 9 -8 7 84 3 124 -6z m6158 -7 c-13 -2 -35 -2 -50 0 -16 2 -5 4 22 4
28 0 40 -2 28 -4z m-5905 -30 c-10 -2 -26 -2 -35 0 -10 3 -2 5 17 5 19 0 27
-2 18 -5z m87 -18 c39 -17 11 -18 -35 0 -23 9 -28 14 -15 14 11 0 34 -6 50
-14z m90 -25 c13 -6 15 -9 5 -9 -8 0 -22 4 -30 9 -18 12 -2 12 25 0z m70 -24
c33 -14 48 -36 25 -36 -5 0 -10 4 -10 10 0 5 -15 16 -32 24 -18 8 -29 15 -25
15 4 1 23 -6 42 -13z m399 -674 c77 -130 182 -267 305 -394 l123 -128 -53 -47
c-185 -163 -312 -324 -374 -475 -19 -45 -41 -88 -50 -95 -33 -23 -238 -84
-338 -99 -207 -32 -522 -3 -694 62 -55 21 -59 37 -39 152 23 131 60 240 131
387 141 292 340 489 605 598 76 32 309 106 335 106 6 0 28 -30 49 -67z m4497
37 c305 -89 457 -168 591 -305 148 -152 245 -317 323 -548 44 -134 74 -299 59
-324 -15 -23 -160 -76 -280 -102 -200 -43 -504 -36 -704 15 -82 21 -100 40
-140 146 -89 231 -207 395 -394 547 l-40 31 108 108 c126 126 202 217 297 360
38 57 71 103 73 103 2 0 50 -14 107 -31z m-750 -835 c90 -56 180 -167 255
-316 102 -203 138 -405 116 -646 -17 -191 -72 -420 -118 -489 -15 -23 -20 -25
-67 -19 -140 19 -437 148 -613 267 -108 73 -222 189 -257 262 -46 95 -67 198
-76 362 -4 83 -5 152 -3 155 9 12 69 -79 145 -220 101 -188 141 -235 210 -247
41 -6 84 14 121 57 48 58 31 145 -74 375 -58 126 -100 244 -100 279 0 30 5 36
45 55 25 12 47 21 51 21 13 0 192 95 227 120 34 25 42 27 70 18 18 -6 48 -21
68 -34z m-2846 -84 c82 -39 157 -74 165 -79 8 -4 49 -18 90 -30 86 -26 93 -30
138 -88 30 -38 34 -50 34 -107 0 -82 -11 -164 -24 -172 -7 -5 -8 6 -4 32 4 22
9 73 12 114 5 75 5 75 -33 124 -34 44 -48 52 -148 91 -129 49 -140 54 -265
114 -110 52 -167 58 -240 22 -52 -25 -63 -27 -32 -5 26 18 119 53 142 54 8 0
82 -32 165 -70z m-350 -20 c-10 -11 -24 -20 -31 -20 -29 0 -164 -159 -164
-192 0 -9 2 -10 8 -2 4 6 43 28 87 49 69 33 90 38 161 40 97 3 138 -10 202
-61 64 -53 72 -64 118 -173 10 -24 30 -56 44 -70 15 -14 30 -39 34 -55 4 -16
20 -41 37 -57 16 -15 29 -32 29 -38 0 -6 4 -11 8 -11 5 0 13 -17 18 -37 7 -29
15 -39 32 -41 18 -3 23 -8 19 -23 -3 -11 0 -31 7 -44 12 -23 14 -24 28 -7 16
18 59 122 79 187 6 22 15 49 20 60 20 51 7 -37 -17 -116 -77 -243 -228 -411
-527 -584 -118 -68 -276 -140 -335 -153 -40 -9 -43 -8 -63 20 -45 63 -97 262
-120 460 -16 144 -7 348 20 453 33 126 104 255 179 328 72 71 177 143 127 87z
m1545 -286 c117 -4 224 -2 290 5 l105 12 32 -36 c67 -78 129 -226 158 -381 23
-119 16 -307 -15 -414 -62 -217 -218 -452 -419 -629 -85 -76 -78 -76 -196 27
-213 188 -352 411 -407 656 -28 126 -28 300 1 416 26 106 100 259 154 317 38
41 44 44 77 39 19 -3 118 -9 220 -12z"/>
<path d="M11866 16175 c-3 -8 -1 -15 4 -15 6 0 10 7 10 15 0 8 -2 15 -4 15 -2
0 -6 -7 -10 -15z"/>
<path d="M11804 16085 c-13 -18 -40 -40 -59 -51 -19 -10 -35 -24 -35 -32 0 -7
-6 -12 -12 -10 -7 2 -34 -9 -60 -25 -26 -15 -51 -27 -57 -27 -5 0 -14 -6 -18
-13 -10 -15 -278 -147 -300 -147 -4 0 -25 -8 -47 -19 -48 -22 -148 -41 -229
-44 -50 -2 -57 -4 -53 -19 2 -10 1 -18 -3 -18 -4 0 -14 -11 -21 -25 -18 -34
-37 -32 -36 5 1 21 6 30 19 30 23 0 22 17 -2 25 -35 11 -53 -4 -46 -39 17 -82
83 -176 124 -176 6 0 11 -4 11 -9 0 -5 8 -11 18 -15 9 -3 51 -24 92 -46 86
-45 89 -46 89 -22 -1 9 2 27 6 40 6 16 3 22 -9 22 -9 0 -16 -8 -16 -20 0 -11
-6 -20 -13 -20 -25 0 -77 31 -77 46 0 8 -4 14 -10 14 -18 0 -11 30 8 30 21 1
47 19 55 40 3 8 6 0 6 -18 1 -22 5 -32 14 -29 6 2 24 -10 40 -26 l27 -29 21
25 c11 15 35 49 54 77 78 116 219 262 342 356 14 11 15 13 3 14 -13 0 -13 1 0
10 9 5 19 5 24 0 5 -5 29 6 58 26 28 19 56 34 62 34 23 0 76 55 82 86 8 42
-19 41 -52 -1z m-10 -60 c-6 -16 -24 -21 -24 -7 0 11 11 22 21 22 5 0 6 -7 3
-15z m-844 -381 c0 -8 -4 -14 -10 -14 -5 0 -10 9 -10 21 0 11 5 17 10 14 6 -3
10 -13 10 -21z m-35 -47 c-5 -17 0 -26 17 -36 13 -6 30 -13 38 -14 24 -4 41
-18 35 -28 -4 -5 -13 -5 -23 0 -9 4 -22 6 -28 4 -6 -2 -23 10 -38 27 -21 25
-24 35 -16 51 14 26 22 24 15 -4z m45 -18 c0 -5 -7 -9 -15 -9 -8 0 -15 7 -15
15 0 9 6 12 15 9 8 -4 15 -10 15 -15z m269 -66 c-14 -27 -25 -29 -33 -8 -3 8
-1 15 5 15 7 0 9 10 5 25 -10 38 4 51 21 19 11 -23 12 -33 2 -51z m-166 42
c-20 -27 -43 -33 -43 -10 0 15 26 34 48 35 9 0 8 -7 -5 -25z m-33 -65 c0 -5
-4 -10 -10 -10 -5 0 -10 5 -10 10 0 6 5 10 10 10 6 0 10 -4 10 -10z"/>
<path d="M11116 15455 c4 -8 10 -12 15 -9 11 6 2 24 -11 24 -5 0 -7 -7 -4 -15z"/>
<path d="M8952 14120 c-13 -6 -43 -23 -67 -40 -139 -96 -138 -308 2 -402 165
-111 383 5 383 204 0 143 -102 249 -240 247 -30 0 -65 -4 -78 -9z m92 -41 c35
-28 33 -73 -6 -102 -48 -36 -108 -3 -108 59 0 30 5 37 33 49 43 19 50 18 81
-6z"/>
<path d="M10884 14116 c-45 -20 -112 -83 -135 -127 -26 -53 -26 -149 2 -206
31 -64 109 -129 170 -142 64 -14 65 -14 128 5 182 54 234 283 95 418 -62 60
-185 84 -260 52z m104 -32 c46 -32 12 -124 -47 -124 -13 0 -35 10 -48 22 -31
29 -30 71 3 97 32 25 61 27 92 5z"/>
<path d="M9880 14009 c-286 -44 -511 -244 -551 -490 -28 -172 65 -387 214
-498 138 -101 293 -151 471 -151 223 0 404 73 532 213 148 162 176 376 77 585
-36 75 -167 206 -250 250 -155 82 -335 115 -493 91z m312 -308 c141 -54 210
-135 216 -253 6 -90 -14 -143 -76 -201 -70 -64 -141 -89 -279 -95 -135 -5
-224 13 -310 65 -98 58 -153 142 -153 232 0 51 40 130 85 170 44 39 127 79
200 98 77 19 247 11 317 -16z"/>
<path d="M9774 13560 c-11 -4 -33 -23 -48 -41 -39 -46 -32 -100 20 -148 33
-31 40 -33 87 -28 41 3 56 10 79 36 33 36 38 102 12 139 -31 44 -98 63 -150
42z"/>
<path d="M10145 13551 c-50 -30 -70 -59 -70 -101 0 -73 93 -135 162 -109 72
27 96 82 65 153 -32 71 -97 95 -157 57z"/>
<path d="M9465 11740 c4 -6 11 -8 16 -5 14 9 11 15 -7 15 -8 0 -12 -5 -9 -10z"/>
<path d="M10514 11734 c-3 -12 -17 -27 -30 -33 -14 -6 -22 -16 -19 -21 9 -15
23 -12 45 10 11 11 27 20 35 20 8 0 15 5 15 12 0 6 -3 8 -7 5 -3 -4 -12 1 -19
11 -13 16 -14 16 -20 -4z"/>
<path d="M10400 11728 c-15 -6 -159 -13 -370 -16 -190 -3 -336 -8 -325 -13 19
-7 19 -8 -2 -8 -13 -1 -23 -4 -23 -7 0 -14 30 -33 43 -28 8 3 18 1 22 -5 3 -6
0 -14 -9 -17 -25 -9 -27 -34 -6 -73 19 -36 22 -58 50 -451 15 -203 -13 -180
214 -180 l194 0 6 33 c3 17 13 115 21 217 9 102 18 192 20 200 3 8 5 41 6 73
1 32 6 60 11 63 4 3 8 12 8 20 0 34 43 74 99 90 54 15 115 12 174 -11 14 -6
17 -2 17 24 0 32 -14 42 -23 17 -7 -18 -56 -9 -83 16 -12 10 -31 20 -43 21
-11 1 -21 4 -21 8 0 10 57 22 69 15 12 -8 41 3 41 15 0 12 -59 10 -90 -3z m5
-68 c-3 -5 -10 -10 -16 -10 -5 0 -9 5 -9 10 0 6 7 10 16 10 8 0 12 -4 9 -10z
m-571 -705 c-4 -8 -8 -15 -10 -15 -2 0 -4 7 -4 15 0 8 4 15 10 15 5 0 7 -7 4
-15z"/>
<path d="M9440 11711 c0 -6 4 -13 10 -16 6 -3 7 1 4 9 -7 18 -14 21 -14 7z"/>
<path d="M9605 11710 c28 -12 75 -12 75 0 0 6 -21 10 -47 9 -36 0 -43 -3 -28
-9z"/>
<path d="M9490 11690 c0 -11 5 -20 10 -20 6 0 10 9 10 20 0 11 -4 20 -10 20
-5 0 -10 -9 -10 -20z"/>
<path d="M11540 11669 c0 -11 4 -18 10 -14 5 3 7 12 3 20 -7 21 -13 19 -13 -6z"/>
<path d="M9548 11643 c6 -2 18 -2 25 0 6 3 1 5 -13 5 -14 0 -19 -2 -12 -5z"/>
<path d="M9590 11640 c0 -5 7 -10 15 -10 8 0 15 5 15 10 0 6 -7 10 -15 10 -8
0 -15 -4 -15 -10z"/>
<path d="M9450 11619 c0 -5 5 -7 10 -4 6 3 10 8 10 11 0 2 -4 4 -10 4 -5 0
-10 -5 -10 -11z"/>
<path d="M6503 14143 c-40 -3 -53 -8 -53 -19 0 -9 9 -18 20 -21 11 -3 17 -9
14 -14 -3 -5 8 -6 24 -3 17 4 32 1 36 -5 8 -13 56 -15 56 -3 0 15 -31 72 -38
70 -4 -1 -31 -3 -59 -5z m64 -29 c-3 -3 -12 -4 -19 -1 -8 3 -5 6 6 6 11 1 17
-2 13 -5z"/>
<path d="M6395 14130 c-6 -10 24 -59 38 -60 4 0 7 -6 7 -14 0 -8 8 -16 18 -18
22 -5 92 14 92 24 0 12 -24 10 -37 -3 -15 -15 -63 14 -63 36 0 8 -7 15 -16 15
-14 0 -14 3 -4 15 10 13 9 15 -8 15 -12 0 -24 -4 -27 -10z"/>
<path d="M13429 14136 c-5 -6 -9 -20 -9 -32 0 -18 7 -23 41 -29 22 -4 53 -13
67 -21 15 -8 33 -14 40 -14 7 0 32 -9 54 -20 50 -24 44 -24 52 -2 3 9 19 40
35 67 16 28 30 52 30 55 2 9 -300 5 -310 -4z m259 -37 c-2 -6 -8 -10 -13 -10
-5 0 -11 4 -13 10 -2 6 4 11 13 11 9 0 15 -5 13 -11z"/>
<path d="M7220 12710 c-13 -8 -12 -10 3 -10 9 0 17 5 17 10 0 12 -1 12 -20 0z"/>
<path d="M13085 8529 c-299 -46 -462 -269 -360 -495 14 -32 41 -66 74 -94 57
-48 63 -65 25 -74 -33 -9 -45 1 -111 96 -163 232 -377 315 -677 262 -49 -8
-108 -22 -131 -29 -40 -14 -46 -13 -116 12 -137 50 -355 32 -517 -42 -30 -14
-56 -25 -57 -25 -2 0 -24 31 -49 69 -49 75 -83 101 -165 125 -68 20 -136 20
-238 1 -97 -18 -169 -47 -305 -121 -136 -74 -165 -97 -177 -140 -16 -56 -3
-95 61 -184 58 -82 60 -85 54 -132 -4 -27 -10 -58 -15 -69 -7 -20 -10 -18 -34
23 -62 107 -189 153 -342 123 l-79 -15 -26 25 c-74 71 -380 73 -610 5 -117
-35 -313 -142 -366 -201 -21 -23 -34 -24 -34 -4 0 32 -43 97 -133 202 -51 59
-103 125 -115 145 -37 60 -86 96 -164 119 -68 21 -78 21 -176 10 -122 -14
-199 -41 -308 -107 -124 -74 -162 -106 -184 -150 -23 -46 -20 -74 16 -167 l23
-57 -37 -16 c-36 -15 -37 -14 -51 8 -33 52 -143 150 -194 172 -109 48 -175 60
-312 60 -254 -1 -485 -66 -657 -186 -14 -10 -28 -18 -31 -18 -10 0 -164 186
-202 243 -43 66 -132 145 -204 181 -25 13 -79 34 -120 46 -64 20 -88 22 -200
17 -88 -3 -153 -12 -217 -29 l-90 -24 -70 25 c-93 34 -268 35 -389 2 -132 -35
-377 -164 -411 -215 -36 -56 -30 -91 38 -231 l65 -130 -48 -295 c-69 -430 -82
-540 -82 -685 0 -212 44 -350 138 -433 23 -20 85 -87 139 -149 53 -62 111
-124 130 -138 38 -29 120 -59 187 -69 31 -5 54 -15 70 -33 13 -14 44 -35 69
-46 65 -29 203 -28 285 4 64 24 155 76 155 88 0 4 -9 26 -20 49 -32 66 -50
174 -50 300 0 64 4 122 8 128 5 9 25 8 77 -2 131 -25 329 -14 458 26 l60 19
42 -37 c23 -20 83 -85 133 -144 136 -159 229 -227 372 -273 30 -9 95 -37 143
-62 92 -46 214 -83 277 -83 47 0 55 -8 33 -33 -10 -11 9 1 42 28 123 99 279
147 413 128 75 -11 78 -11 115 14 38 27 74 64 113 118 l22 29 46 -51 c54 -60
129 -99 220 -116 45 -8 71 -19 99 -44 20 -18 58 -39 82 -45 29 -8 44 -17 41
-25 -3 -7 17 3 43 22 67 49 131 75 220 91 42 7 82 13 89 14 9 0 4 14 -13 44
-30 51 -55 158 -55 236 l0 55 42 -50 c90 -107 170 -182 229 -217 53 -32 58
-37 37 -41 -15 -4 -11 -5 12 -5 34 1 68 -9 112 -33 15 -8 19 -8 14 0 -13 21
17 11 68 -23 60 -39 129 -63 207 -72 l56 -6 37 53 c50 76 79 94 146 94 42 0
64 -6 90 -24 19 -13 29 -18 23 -11 -10 11 -9 18 8 36 21 22 21 22 63 4 23 -11
61 -22 84 -26 23 -3 40 -10 37 -14 -3 -4 15 -5 39 -3 88 10 220 -43 273 -111
12 -14 27 -26 34 -26 7 0 3 7 -9 16 -30 21 -28 31 11 38 42 8 144 58 181 89
l29 24 -25 34 c-46 62 -41 72 15 30 57 -42 95 -58 175 -71 37 -6 64 -19 89
-41 52 -45 98 -61 178 -61 82 -1 124 11 215 59 100 52 105 57 86 85 -24 34
-19 42 12 20 31 -22 81 -40 162 -58 51 -11 52 -12 20 -14 -21 -2 -7 -6 38 -10
77 -9 167 -45 203 -84 47 -48 63 -97 63 -186 1 -47 -5 -102 -12 -122 -28 -80
-124 -166 -235 -212 -114 -46 -193 -76 -205 -76 -17 0 -15 -16 3 -34 39 -39
156 -33 247 12 55 27 67 38 92 86 35 68 93 123 140 131 l35 7 -6 59 c-3 34 -1
83 7 118 14 69 8 83 -72 167 l-49 50 72 11 c45 7 99 25 143 47 93 47 112 62
99 78 -43 54 -80 270 -68 393 4 38 8 72 10 76 3 3 35 0 72 -7 88 -17 269 -17
358 0 39 8 70 13 71 12 11 -29 74 -111 98 -130 18 -14 77 -76 130 -139 53 -63
113 -126 133 -140 42 -28 112 -53 176 -63 27 -5 55 -19 79 -40 39 -35 119 -64
175 -64 48 0 71 -18 178 -146 53 -62 114 -127 135 -144 47 -37 127 -74 202
-94 32 -8 73 -27 92 -41 133 -101 433 -106 642 -10 385 176 633 640 725 1354
10 85 20 225 21 310 2 168 -4 193 -57 251 -17 18 -26 47 -35 105 -14 97 -32
130 -140 255 -45 52 -97 118 -115 145 -44 68 -73 92 -134 115 -56 22 -157 26
-226 10 -34 -8 -43 -6 -61 11 -91 85 -496 71 -733 -25 -55 -22 -61 -23 -74 -8
-8 10 -17 46 -21 80 -9 91 -31 133 -136 257 -51 61 -106 131 -122 157 -72 117
-251 184 -423 157z m199 -45 c81 -20 158 -73 196 -136 17 -27 72 -97 122 -155
103 -121 127 -167 128 -239 0 -107 -62 -207 -167 -266 -48 -27 -53 -32 -40
-46 14 -13 22 -9 76 39 79 70 196 141 294 179 105 41 281 70 428 70 149 0 215
-13 250 -51 l27 -29 71 16 c128 29 239 -2 296 -84 16 -23 64 -83 105 -133 126
-152 149 -188 161 -254 22 -115 -4 -468 -52 -706 -121 -610 -356 -1001 -708
-1179 -201 -101 -490 -119 -668 -40 -81 35 -119 68 -222 189 -55 64 -117 130
-138 148 -22 17 -53 56 -69 87 -19 37 -34 54 -43 51 -33 -13 -155 -25 -194
-19 -76 11 -161 44 -198 77 -20 17 -78 80 -128 139 -51 59 -101 114 -112 122
-58 40 -105 138 -117 241 -9 70 -3 69 -123 26 -117 -42 -319 -67 -435 -55
l-84 9 0 -75 c0 -90 21 -193 49 -249 46 -89 20 -131 -123 -201 -97 -48 -173
-64 -283 -58 -112 6 -192 45 -262 128 l-50 60 -13 -27 c-15 -32 -138 -110
-227 -144 -43 -17 -79 -22 -156 -23 -94 -1 -105 1 -166 31 -52 26 -79 48 -125
103 -32 38 -60 70 -64 70 -3 0 -6 -12 -7 -28 -3 -59 -164 -161 -287 -183 -158
-27 -267 9 -368 121 l-61 69 -64 -60 c-115 -107 -254 -157 -407 -146 -150 11
-253 68 -374 207 -41 47 -117 129 -169 183 l-93 98 6 -58 c8 -79 29 -149 54
-180 11 -15 20 -41 20 -61 0 -47 -57 -100 -166 -154 -74 -36 -90 -40 -181 -45
-79 -5 -111 -2 -154 12 -86 28 -112 49 -229 186 -61 71 -114 129 -118 129 -4
0 -20 -23 -37 -51 -55 -94 -193 -198 -327 -247 -163 -60 -440 -68 -611 -18
-171 51 -253 106 -390 266 -51 58 -119 132 -153 165 -33 33 -78 88 -99 123
-21 34 -41 62 -45 62 -4 0 -32 -11 -61 -24 -125 -57 -374 -95 -512 -78 -37 5
-69 6 -72 4 -9 -9 -5 -104 6 -172 5 -35 23 -98 40 -138 33 -85 31 -110 -14
-148 -46 -38 -159 -92 -229 -109 -124 -29 -270 -11 -347 44 -17 12 -72 70
-123 129 -50 59 -115 130 -144 157 -102 98 -129 190 -128 430 1 174 13 270 99
789 14 81 25 158 25 170 0 12 -27 74 -60 137 -73 140 -77 175 -26 224 41 38
278 157 356 178 141 39 265 39 384 -1 77 -26 87 -27 123 -14 126 44 306 61
413 38 145 -30 284 -123 355 -237 23 -36 145 -187 201 -248 10 -11 19 -8 56
16 198 135 434 201 683 190 220 -9 354 -75 447 -219 16 -27 31 -48 33 -48 2 0
26 11 53 25 28 14 55 25 61 25 14 0 7 34 -25 116 -42 106 -30 135 84 210 165
109 290 154 431 154 112 0 209 -48 247 -123 9 -16 59 -80 111 -141 97 -112
132 -170 133 -216 1 -52 15 -54 61 -11 88 83 239 170 372 215 82 28 226 48
347 49 142 1 211 -14 244 -54 l25 -29 78 16 c161 34 263 -2 340 -117 41 -63
70 -97 76 -88 2 2 11 53 21 113 l18 109 -22 29 c-141 191 -145 223 -32 292
212 128 364 180 515 174 128 -4 173 -27 233 -118 65 -100 60 -98 156 -57 171
73 343 87 487 38 l84 -28 61 19 c95 30 251 50 326 42 185 -19 322 -101 431
-259 27 -38 61 -85 77 -103 l28 -32 62 27 c34 14 62 30 62 35 0 5 -31 39 -69
76 -38 37 -76 83 -86 102 -27 53 -31 148 -9 211 61 169 322 278 538 223z"/>
<path d="M13072 8410 c-153 -32 -261 -135 -262 -248 0 -53 18 -89 67 -132 41
-36 173 -189 173 -201 0 -3 -21 -12 -46 -18 -25 -7 -86 -32 -135 -56 -49 -25
-92 -45 -97 -45 -11 0 -130 142 -159 189 -40 64 -125 141 -198 177 -123 61
-296 62 -475 4 l-87 -28 -49 23 c-153 72 -320 58 -538 -43 l-79 -36 -49 54
c-27 30 -58 73 -71 94 -36 64 -65 79 -160 84 -108 6 -204 -20 -346 -93 -148
-76 -174 -93 -167 -110 3 -8 34 -54 69 -102 l64 -88 -35 -218 c-20 -119 -39
-216 -43 -215 -11 5 -182 214 -204 249 -11 18 -36 42 -55 54 -49 28 -162 26
-249 -4 l-64 -22 -22 21 c-13 12 -26 32 -29 45 -4 17 -15 24 -43 29 -66 10
-265 6 -343 -8 -182 -33 -360 -126 -493 -257 l-78 -77 -44 55 c-35 43 -45 63
-45 92 0 50 -20 82 -130 211 -52 62 -103 127 -113 146 -9 18 -31 41 -49 50
-74 38 -237 26 -350 -27 -103 -50 -231 -139 -224 -158 3 -9 17 -48 31 -88 14
-39 26 -93 28 -119 l2 -48 -42 -7 c-54 -10 -100 -33 -141 -72 l-33 -32 -25 30
c-13 17 -45 60 -70 96 -84 126 -182 175 -370 186 -251 14 -509 -65 -693 -214
-29 -23 -57 -43 -60 -43 -4 0 -22 21 -39 48 -17 26 -64 85 -105 132 -40 47
-92 113 -115 146 -81 120 -192 192 -328 214 -102 16 -256 -4 -376 -50 -43 -16
-53 -17 -72 -5 -11 7 -52 23 -90 34 -122 37 -270 24 -417 -39 -100 -42 -239
-122 -239 -137 0 -7 29 -69 65 -137 l66 -124 -36 -219 c-98 -603 -110 -702
-102 -844 9 -150 37 -224 115 -301 32 -31 96 -102 143 -158 112 -133 153 -155
289 -154 105 0 166 18 254 74 35 23 47 35 42 48 -3 9 -17 50 -31 91 -29 81
-43 235 -31 333 l7 55 62 -13 c75 -16 267 -18 357 -3 92 15 204 54 282 98 l66
38 18 -46 c30 -80 66 -133 159 -232 49 -52 127 -136 173 -187 49 -54 106 -105
142 -127 126 -77 290 -112 474 -102 203 11 353 69 473 180 78 73 113 140 113
217 0 64 -1 66 -119 205 -46 55 -90 107 -98 116 -11 14 -3 22 67 67 71 47 98
73 158 151 17 23 18 21 6 -70 -25 -186 -12 -365 32 -451 9 -18 49 -67 89 -108
41 -41 106 -113 147 -159 98 -112 125 -126 253 -126 91 0 106 3 165 31 36 17
80 43 98 58 l32 28 -21 34 c-64 104 -73 309 -27 614 l12 75 13 -90 c25 -173
65 -258 173 -370 43 -44 110 -118 150 -165 123 -145 203 -195 336 -207 164
-15 333 70 431 219 14 21 30 37 34 36 4 -2 43 -43 85 -93 95 -111 124 -132
202 -147 108 -20 265 26 333 98 20 22 21 25 7 41 -42 48 -52 86 -55 218 l-4
130 35 -71 c20 -43 46 -81 66 -95 17 -13 79 -79 137 -147 115 -135 150 -159
241 -168 92 -10 230 35 320 104 l23 18 -24 44 c-14 25 -29 68 -35 95 -12 56
-24 175 -18 175 2 0 16 -20 30 -45 15 -24 38 -52 51 -62 14 -10 75 -76 136
-147 87 -99 122 -133 158 -149 64 -28 170 -34 251 -13 61 16 182 75 195 96 3
5 -4 28 -15 51 -12 23 -28 73 -37 113 -16 75 -22 276 -9 313 6 20 10 21 39 10
54 -20 378 -15 457 7 93 26 176 62 242 106 l57 38 0 -117 c-1 -154 19 -213
100 -291 32 -30 99 -103 149 -161 116 -135 133 -144 277 -144 99 0 116 3 169
28 32 15 60 27 62 27 2 0 4 -19 4 -42 1 -60 29 -117 82 -163 25 -22 87 -89
137 -148 51 -59 111 -121 133 -138 120 -86 377 -101 571 -34 465 161 768 776
813 1650 10 199 4 219 -114 357 -54 62 -111 133 -127 157 -47 70 -69 82 -155
82 -53 1 -94 -5 -137 -21 -35 -12 -67 -19 -73 -15 -6 4 -18 23 -28 43 -21 44
-46 51 -202 51 -299 2 -536 -91 -713 -279 -38 -39 -69 -70 -71 -68 -1 1 -39
47 -85 101 -46 54 -82 99 -80 101 2 2 26 8 53 15 165 40 264 178 213 293 -7
15 -58 81 -114 147 -57 66 -103 123 -103 127 0 23 -60 80 -107 101 -60 28
-170 38 -241 23z m219 -55 c135 -68 144 -198 21 -292 -57 -43 -130 -64 -228
-64 -89 0 -119 8 -170 48 -94 71 -85 188 21 260 73 51 156 74 246 69 44 -2 90
-11 110 -21z m-2312 -176 c23 -8 39 -25 56 -59 39 -77 29 -165 -75 -710 -76
-395 -91 -493 -97 -662 -6 -174 4 -253 42 -330 l24 -48 -67 -39 c-105 -62
-200 -83 -292 -65 -20 4 -52 26 -84 58 -68 67 -106 174 -106 295 0 125 77 683
102 741 6 14 27 126 48 250 29 170 35 230 27 245 -5 11 -35 53 -65 94 -42 57
-51 76 -41 83 46 30 244 124 294 139 69 20 187 24 234 8z m1287 -99 c84 -11
167 -47 227 -100 86 -76 177 -238 177 -316 0 -34 19 -39 64 -17 309 154 452
191 532 138 77 -50 78 -130 6 -450 -123 -550 -140 -782 -65 -892 22 -32 23
-37 8 -53 -30 -33 -140 -81 -207 -90 -137 -20 -235 28 -285 137 -20 44 -25 70
-25 141 0 169 13 270 71 557 l60 290 -62 93 c-34 50 -67 92 -74 92 -9 0 -13
-17 -13 -55 0 -140 -63 -317 -153 -430 -63 -78 -134 -136 -227 -184 -102 -53
-193 -78 -331 -92 -99 -9 -134 -8 -229 6 -62 9 -115 13 -119 10 -12 -12 -13
-232 -2 -305 7 -41 22 -100 35 -132 l24 -59 -41 -26 c-84 -53 -134 -67 -248
-67 l-107 -1 -48 41 c-70 58 -114 146 -125 249 -14 128 6 296 107 923 l28 173
-63 126 c-70 142 -71 140 14 172 28 11 86 35 130 55 189 83 344 88 488 15 l37
-20 92 31 c76 26 139 38 243 48 6 1 42 -3 81 -8z m-6313 -90 c143 -23 263
-119 354 -284 45 -82 57 -279 24 -408 -79 -308 -339 -509 -695 -537 -96 -8
-154 -5 -293 14 l-51 7 -8 -78 c-12 -131 11 -285 61 -406 17 -41 -166 -118
-279 -118 -87 0 -127 14 -178 63 -61 57 -88 130 -95 262 -8 135 12 293 108
886 l30 187 -61 116 c-34 64 -60 122 -57 129 6 17 166 99 257 132 140 51 303
45 422 -16 37 -19 38 -19 88 1 120 47 269 67 373 50z m2521 -43 c14 -10 35
-38 47 -64 22 -49 23 -34 -8 -280 -5 -40 -4 -43 18 -43 13 1 58 9 99 19 54 13
77 15 82 7 4 -6 8 -42 8 -80 0 -149 -74 -222 -245 -238 -34 -3 -30 9 -69 -218
-58 -328 -53 -564 14 -677 l20 -35 -22 -18 c-13 -11 -52 -34 -88 -52 -61 -31
-71 -33 -170 -33 l-105 0 -42 35 c-103 86 -132 230 -102 498 6 53 11 108 11
122 0 14 9 92 20 173 11 81 17 151 14 155 -4 3 -46 -3 -93 -16 -48 -12 -89
-19 -92 -16 -10 10 -16 109 -9 157 6 39 15 56 52 91 44 43 76 58 147 70 57 10
64 24 50 107 -6 39 -20 96 -31 127 -11 31 -20 59 -20 63 0 21 204 132 283 154
68 19 196 15 231 -8z m5974 -143 c32 -6 52 -37 52 -79 0 -30 16 -40 43 -27 72
35 148 55 208 56 80 0 108 -15 138 -77 24 -50 27 -137 11 -327 -51 -600 -225
-1069 -492 -1326 -176 -169 -379 -246 -611 -231 -117 7 -184 28 -239 73 -69
58 -94 103 -101 181 -5 59 -2 74 20 118 13 28 31 59 39 70 14 18 15 18 52 -16
73 -70 172 -109 277 -109 54 0 146 31 220 75 103 60 197 206 237 370 18 73 19
88 7 96 -25 16 -36 10 -78 -44 -63 -83 -132 -133 -239 -174 -89 -35 -232 -38
-303 -6 -58 26 -169 133 -199 193 -12 25 -28 52 -35 60 -52 60 -68 366 -27
515 35 126 81 211 162 303 90 101 179 170 285 221 72 35 201 74 280 84 50 7
261 7 293 1z m-4647 -107 c10 -23 19 -50 19 -59 0 -19 19 -24 36 -10 5 5 51
21 102 37 74 22 106 26 149 22 61 -6 82 -21 121 -81 23 -37 24 -46 19 -125 -3
-48 -20 -151 -37 -231 -115 -532 -128 -741 -54 -853 24 -37 25 -39 7 -53 -87
-67 -188 -99 -285 -91 -147 12 -212 94 -233 294 -6 50 -11 63 -27 69 -23 7
-18 14 -57 -71 -95 -206 -259 -315 -455 -303 -101 7 -143 24 -220 92 -116 102
-168 225 -186 439 -11 146 -3 224 37 347 46 140 98 224 206 329 119 116 168
152 272 202 148 70 312 100 498 91 l69 -4 19 -41z m-2356 -13 c93 -32 147 -77
202 -167 44 -73 53 -151 29 -247 -65 -253 -329 -399 -771 -428 l-110 -7 2 -60
c3 -130 85 -257 186 -291 66 -22 109 -20 172 11 41 20 56 35 83 85 21 39 36
81 39 116 l6 54 57 0 c111 0 250 -42 250 -76 0 -8 7 -29 16 -45 50 -97 -94
-280 -281 -358 -115 -48 -217 -64 -374 -58 -214 8 -329 49 -442 158 -113 110
-186 255 -198 397 -14 169 12 318 79 457 41 85 134 215 154 215 7 0 23 11 36
25 37 40 159 120 232 153 78 35 155 59 253 78 97 19 313 12 380 -12z m6020
-1096 c11 -22 46 -66 78 -97 31 -31 99 -105 150 -165 50 -60 114 -124 142
-142 l50 -34 -45 0 c-101 0 -189 38 -262 111 -57 57 -61 56 -107 -24 l-29 -51
-18 59 c-14 49 -16 83 -11 185 7 131 15 200 26 200 3 0 15 -19 26 -42z m-6295
-37 c0 -10 -44 -30 -94 -41 -33 -7 -36 -6 -36 16 0 21 5 23 63 27 34 2 63 4
65 5 1 1 2 -2 2 -7z"/>
<path d="M11835 7800 c-54 -10 -75 -29 -75 -70 0 -32 -86 -548 -95 -572 -19
-50 135 -49 244 2 35 17 69 30 76 30 25 0 118 106 149 170 25 52 31 78 31 130
-1 215 -137 343 -330 310z m292 -330 c-8 -63 -56 -155 -108 -206 -32 -31 -39
-35 -39 -19 0 39 33 240 41 249 4 5 25 12 46 16 68 14 66 15 60 -40z"/>
<path d="M5501 7709 c-25 -5 -48 -12 -52 -16 -4 -5 -17 -71 -29 -148 -11 -77
-32 -205 -46 -285 -42 -239 -42 -218 1 -226 51 -9 152 9 217 40 30 14 59 26
65 26 18 0 91 70 122 118 59 92 72 161 52 262 -37 181 -156 263 -330 229z
m301 -324 c-5 -59 -44 -138 -98 -195 -26 -28 -49 -49 -51 -47 -3 4 21 189 33
244 5 24 49 43 94 40 23 -2 25 -6 22 -42z"/>
<path d="M14345 7603 c-178 -25 -351 -132 -430 -267 -114 -194 -104 -421 21
-524 53 -44 146 -75 198 -68 58 9 134 47 184 92 60 54 59 47 120 589 11 94 18
173 15 178 -4 7 -54 7 -108 0z m30 -415 c-4 -35 -15 -112 -25 -172 -17 -97
-22 -112 -52 -143 -42 -44 -115 -82 -174 -90 l-46 -6 7 54 c16 121 78 250 157
326 37 34 118 92 131 93 5 0 6 -28 2 -62z"/>
<path d="M14248 7038 c-8 -13 -27 -46 -42 -75 -40 -80 -33 -94 21 -45 24 22
32 41 38 81 8 61 4 71 -17 39z"/>
<path d="M9600 7519 c-150 -39 -318 -167 -399 -303 -72 -121 -98 -283 -65
-397 32 -107 98 -158 212 -161 76 -2 152 35 226 108 85 86 113 143 126 259 7
55 12 121 11 147 0 26 12 116 28 200 16 84 27 156 24 161 -8 13 -86 6 -163
-14z m76 -376 c-3 -10 -10 -61 -16 -113 -9 -77 -17 -105 -43 -149 -50 -83
-142 -159 -219 -182 -34 -9 -35 -1 -13 85 32 123 116 247 224 332 61 48 75 53
67 27z"/>
<path d="M9554 6948 c-4 -7 -14 -24 -22 -38 -14 -24 -13 -24 3 -5 20 24 37 55
31 55 -3 0 -8 -6 -12 -12z"/>
<path d="M7083 7430 c-102 -51 -187 -163 -248 -323 -37 -100 -37 -101 38 -93
201 22 373 118 431 240 9 19 16 57 16 85 0 42 -5 56 -29 83 -24 27 -36 32 -87
36 -51 3 -68 -1 -121 -28z"/>
<path d="M13490 6405 c0 -8 7 -15 16 -15 14 0 14 3 4 15 -7 8 -14 15 -16 15
-2 0 -4 -7 -4 -15z"/>
<path d="M7760 6635 c0 -8 5 -15 10 -15 6 0 10 7 10 15 0 8 -4 15 -10 15 -5 0
-10 -7 -10 -15z"/>
<path d="M8140 5856 c0 -2 8 -10 18 -17 15 -13 16 -12 3 4 -13 16 -21 21 -21
13z"/>
<path d="M9065 5850 c-3 -6 1 -7 9 -4 18 7 21 14 7 14 -6 0 -13 -4 -16 -10z"/>
<path d="M12333 5853 c15 -2 39 -2 55 0 15 2 2 4 -28 4 -30 0 -43 -2 -27 -4z"/>
<path d="M12268 5843 c7 -3 16 -2 19 1 4 3 -2 6 -13 5 -11 0 -14 -3 -6 -6z"/>
<path d="M12448 5843 c7 -3 16 -2 19 1 4 3 -2 6 -13 5 -11 0 -14 -3 -6 -6z"/>
<path d="M8978 5833 c7 -3 16 -2 19 1 4 3 -2 6 -13 5 -11 0 -14 -3 -6 -6z"/>
<path d="M9030 5830 c-9 -6 -10 -10 -3 -10 6 0 15 5 18 10 8 12 4 12 -15 0z"/>
<path d="M11478 5833 c7 -3 16 -2 19 1 4 3 -2 6 -13 5 -11 0 -14 -3 -6 -6z"/>
<path d="M7908 5813 c7 -3 16 -2 19 1 4 3 -2 6 -13 5 -11 0 -14 -3 -6 -6z"/>
<path d="M8215 5786 c10 -16 26 -43 36 -60 33 -57 40 -115 24 -212 -13 -79
-54 -248 -83 -341 -6 -18 -9 -33 -8 -33 2 0 21 24 43 53 26 35 43 72 52 112
17 75 43 143 76 196 l26 40 -40 84 c-25 51 -60 104 -92 137 -33 34 -45 43 -34
24z"/>
<path d="M9930 5800 c0 -6 7 -13 15 -17 24 -9 27 1 5 15 -13 8 -20 8 -20 2z"/>
<path d="M9346 5760 c4 -8 18 -30 30 -48 12 -18 25 -51 29 -73 6 -37 2 -53
-40 -136 l-47 -95 -5 -136 -5 -137 47 46 c42 41 47 51 49 96 2 35 16 75 45
134 39 76 42 89 38 137 -6 61 -43 125 -108 187 -23 22 -38 33 -33 25z"/>
<path d="M10548 5753 c7 -3 16 -2 19 1 4 3 -2 6 -13 5 -11 0 -14 -3 -6 -6z"/>
<path d="M12668 5709 c23 -46 27 -67 26 -139 0 -106 -26 -171 -92 -231 -30
-28 -42 -46 -36 -54 80 -104 103 -182 85 -285 -15 -80 -48 -138 -104 -182 -67
-54 -91 -67 -169 -87 -188 -50 -399 -28 -517 52 l-44 30 -56 -28 c-89 -44
-184 -66 -316 -72 -176 -8 -293 25 -364 101 -14 14 -29 26 -34 26 -4 0 -34
-18 -65 -40 -109 -79 -287 -109 -366 -62 l-37 22 38 -45 c103 -124 283 -121
469 6 l42 28 18 -20 c30 -34 102 -71 173 -91 144 -40 391 -14 528 56 l51 25
26 -20 c39 -31 104 -56 188 -73 183 -38 389 -2 507 88 134 101 162 315 61 454
l-30 42 35 31 c19 17 49 61 67 97 29 58 33 76 33 147 0 97 -29 165 -99 234
l-44 43 26 -53z"/>
<path d="M10810 5746 c0 -2 7 -7 16 -10 8 -3 12 -2 9 4 -6 10 -25 14 -25 6z"/>
<path d="M12029 5723 l-24 -28 28 24 c15 14 27 26 27 28 0 8 -8 1 -31 -24z"/>
<path d="M11229 5723 c-13 -16 -12 -17 4 -4 9 7 17 15 17 17 0 8 -8 3 -21 -13z"/>
<path d="M8465 5648 l-50 -53 53 50 c48 46 57 55 49 55 -1 0 -25 -24 -52 -52z"/>
<path d="M10934 5645 c9 -14 23 -51 31 -84 17 -65 10 -167 -19 -291 -20 -82
-20 -90 0 -61 9 12 25 56 35 97 10 41 30 103 44 139 30 74 28 81 -45 173 -41
53 -76 73 -46 27z"/>
<path d="M7284 5618 l-29 -33 33 29 c30 28 37 36 29 36 -2 0 -16 -15 -33 -32z"/>
<path d="M11129 5623 c-13 -16 -12 -17 4 -4 9 7 17 15 17 17 0 8 -8 3 -21 -13z"/>
<path d="M8202 5545 c-7 -47 -20 -114 -28 -148 -21 -82 -131 -477 -140 -502
l-7 -20 21 20 c14 13 36 76 67 185 90 321 121 471 107 524 -6 23 -10 12 -20
-59z"/>
<path d="M9286 5522 l-49 -105 -1 -171 c-1 -98 3 -178 9 -188 7 -11 10 38 10
160 l0 177 48 93 c38 72 47 98 40 116 -7 20 -15 9 -57 -82z"/>
<path d="M12621 5575 c-2 -103 -51 -183 -149 -238 -36 -20 -40 -26 -28 -36 12
-10 21 -9 45 4 92 47 151 140 150 235 -1 80 -17 112 -18 35z"/>
<path d="M7833 5600 c-218 -78 -354 -248 -352 -440 1 -95 17 -124 18 -33 2
150 70 270 206 365 39 27 103 61 144 76 75 27 103 52 59 52 -12 -1 -47 -9 -75
-20z"/>
<path d="M8970 5606 c-131 -48 -250 -150 -297 -252 -32 -71 -49 -182 -37 -249
l8 -50 6 85 c9 113 22 157 73 232 52 77 138 148 226 185 62 26 80 38 81 56 0
10 -19 8 -60 -7z"/>
<path d="M11800 5565 c-2 -141 -84 -217 -325 -305 -148 -54 -148 -54 -142
-107 6 -59 22 -74 22 -20 l0 41 120 47 c269 102 346 174 344 319 -1 74 -17 96
-19 25z"/>
<path d="M10378 5573 c5 -21 7 -23 10 -9 2 10 0 22 -6 28 -6 6 -7 0 -4 -19z"/>
<path d="M11099 5583 c-13 -16 -12 -17 4 -4 9 7 17 15 17 17 0 8 -8 3 -21 -13z"/>
<path d="M12282 5589 c-28 -8 -32 -13 -26 -32 9 -31 27 -59 19 -30 -5 19 0 23
50 33 30 6 64 9 75 5 24 -8 25 -2 4 19 -17 18 -70 20 -122 5z"/>
<path d="M7239 5563 c-13 -16 -12 -17 4 -4 9 7 17 15 17 17 0 8 -8 3 -21 -13z"/>
<path d="M11422 5546 c-29 -33 -53 -94 -67 -166 -6 -31 -5 -33 8 -20 8 8 23
40 32 70 24 74 70 120 120 120 32 0 36 2 25 15 -7 8 -29 15 -50 15 -31 0 -44
-7 -68 -34z"/>
<path d="M9998 5531 c-39 -19 -127 -146 -160 -230 -27 -70 -35 -206 -15 -271
13 -43 13 -41 9 60 -4 96 -2 111 22 169 33 81 109 204 143 231 15 11 41 20 61
20 28 0 32 2 23 14 -19 22 -48 25 -83 7z"/>
<path d="M10895 5520 c9 -50 -11 -197 -46 -332 -30 -120 -35 -158 -21 -158 8
0 26 67 63 230 23 101 29 246 11 275 -11 18 -12 16 -7 -15z"/>
<path d="M7764 5482 c-138 -91 -195 -177 -201 -302 -5 -92 2 -105 51 -96 32 6
36 10 36 39 0 46 51 147 92 183 27 23 38 45 51 95 9 35 20 74 23 87 8 28 -1
27 -52 -6z"/>
<path d="M8874 5470 c-99 -75 -154 -168 -162 -272 -6 -92 1 -118 36 -118 40 0
48 10 55 63 8 58 39 121 82 167 30 32 33 42 38 118 4 45 5 82 4 81 -1 0 -25
-18 -53 -39z"/>
<path d="M10515 5470 c-37 -15 -97 -92 -139 -179 -38 -80 -41 -92 -40 -166 0
-44 5 -90 10 -102 6 -16 9 3 9 65 0 83 2 91 47 183 58 118 112 173 164 167 44
-5 45 16 3 31 -18 6 -32 11 -33 10 -1 0 -10 -4 -21 -9z"/>
<path d="M9960 5363 c-86 -149 -91 -187 -48 -366 20 -84 20 -90 3 -132 -39
-104 -235 -200 -338 -166 -44 15 -84 60 -92 105 l-7 33 -71 -43 c-88 -54 -210
-88 -279 -79 -44 6 -128 54 -128 73 0 4 -4 13 -9 20 -6 11 -19 6 -58 -22 -62
-44 -116 -64 -212 -77 -133 -19 -262 16 -339 90 l-39 38 -33 -40 c-37 -44
-164 -141 -240 -184 -46 -26 -52 -33 -71 -93 -65 -196 -168 -301 -332 -336
-82 -18 -168 -17 -245 1 -75 18 -109 34 -159 78 l-38 32 34 -44 c85 -108 191
-161 337 -169 217 -11 362 71 448 252 19 39 40 91 47 115 8 27 22 49 38 59
102 61 174 113 227 164 l61 58 66 -44 c147 -99 375 -99 522 0 l50 33 26 -28
c46 -51 86 -66 169 -65 80 2 183 33 242 75 l31 22 47 -51 c53 -57 82 -72 141
-72 87 0 230 74 277 143 20 30 22 39 13 78 -6 24 -11 80 -11 125 0 45 -5 95
-11 113 -8 23 -8 39 0 59 5 15 15 86 20 158 6 72 13 138 17 147 3 10 2 17 -3
17 -5 0 -29 -35 -53 -77z"/>
<path d="M10484 5324 c-81 -140 -89 -189 -53 -320 37 -135 3 -201 -139 -272
-63 -31 -86 -37 -138 -37 -37 0 -68 5 -75 13 -7 6 -18 12 -23 12 -21 0 89
-100 122 -111 100 -33 293 54 340 153 l21 43 -21 60 c-32 93 -35 209 -8 368
12 75 20 141 18 148 -2 7 -22 -19 -44 -57z"/>
<path d="M9471 5344 c0 -11 3 -14 6 -6 3 7 2 16 -1 19 -3 4 -6 -2 -5 -13z"/>
<path d="M7111 5244 c0 -11 3 -14 6 -6 3 7 2 16 -1 19 -3 4 -6 -2 -5 -13z"/>
<path d="M12175 5160 c49 -52 93 -99 98 -105 5 -5 5 -1 -1 10 -6 11 -50 58
-99 105 l-88 85 90 -95z"/>
<path d="M7102 5175 c0 -16 2 -22 5 -12 2 9 2 23 0 30 -3 6 -5 -1 -5 -18z"/>
<path d="M12578 5048 c-13 -157 -132 -247 -348 -263 -155 -12 -302 29 -373
103 l-28 30 -50 -34 c-85 -57 -194 -86 -340 -92 -149 -5 -213 9 -283 63 -25
19 -43 28 -39 20 9 -25 95 -81 153 -100 76 -25 247 -23 351 4 69 17 164 60
211 93 14 10 24 5 61 -29 58 -54 138 -82 251 -90 181 -11 335 36 402 124 41
54 61 135 48 195 l-10 43 -6 -67z"/>
<path d="M7101 5034 c0 -11 3 -14 6 -6 3 7 2 16 -1 19 -3 4 -6 -2 -5 -13z"/>
<path d="M9496 4962 c-106 -116 -321 -204 -390 -158 -32 20 -42 21 -25 0 20
-24 65 -44 102 -44 121 0 365 152 355 221 -3 23 -5 22 -42 -19z"/>
<path d="M7111 4984 c0 -11 3 -14 6 -6 3 7 2 16 -1 19 -3 4 -6 -2 -5 -13z"/>
<path d="M10367 4944 c4 -43 2 -54 -20 -80 -35 -42 -158 -97 -203 -92 -41 5
-41 -11 0 -31 26 -12 35 -10 98 14 86 34 148 89 147 131 0 16 -7 47 -14 69
l-14 40 6 -51z"/>
<path d="M9846 4940 c7 -61 -15 -89 -111 -136 -62 -30 -81 -36 -116 -31 l-42
5 21 -21 c14 -14 33 -21 55 -20 41 1 130 42 177 82 31 25 35 34 33 72 -1 24
-6 55 -12 69 -9 21 -10 18 -5 -20z"/>
<path d="M8940 4899 c-86 -87 -146 -111 -280 -113 -106 -1 -137 8 -215 62
l-50 36 35 -38 c19 -20 60 -49 90 -64 49 -24 66 -27 160 -27 92 1 112 4 161
27 88 40 184 135 170 168 -4 11 -23 -2 -71 -51z"/>
<path d="M11047 4957 c-9 -24 -140 -116 -195 -137 -79 -30 -151 -36 -193 -16
l-34 17 34 -32 c33 -30 37 -31 101 -27 79 6 160 40 238 101 59 45 82 81 65 98
-7 7 -12 6 -16 -4z"/>
<path d="M8295 4902 c-70 -81 -150 -148 -252 -210 -86 -52 -88 -54 -108 -115
-81 -238 -187 -327 -390 -327 -91 0 -162 21 -220 65 -25 19 -45 31 -45 26 0
-13 66 -64 120 -92 40 -21 58 -24 165 -24 111 0 124 2 176 28 99 48 165 140
215 300 17 55 20 58 89 96 104 57 191 129 273 225 43 51 57 86 33 86 -3 0 -28
-26 -56 -58z"/>
<path d="M7280 4846 c19 -20 60 -49 90 -64 49 -24 66 -27 160 -27 97 0 110 2
165 30 35 17 65 40 72 55 7 13 10 26 9 28 -2 2 -26 -10 -52 -26 -74 -45 -120
-57 -219 -56 -97 0 -153 18 -224 71 l-36 26 35 -37z"/>
<path d="M7241 4771 c33 -39 61 -51 74 -31 3 6 0 10 -8 10 -8 0 -33 14 -57 31
l-43 31 34 -41z"/>
<path d="M7194 4668 l-19 -23 23 19 c12 11 22 21 22 23 0 8 -8 2 -26 -19z"/>
<path d="M7531 4540 c-107 -19 -137 -34 -125 -64 6 -15 8 -15 23 -2 9 8 64 23
124 32 84 13 110 21 118 35 12 24 2 24 -140 -1z"/>
</g>
</svg>
